<svg width="512" height="512" viewBox="0 0 512 512" fill="none" xmlns="http://www.w3.org/2000/svg">
  <defs>
    <!-- Gradientes para dar profundidad -->
    <linearGradient id="bodyDark" x1="0%" y1="0%" x2="100%" y2="100%">
      <stop offset="0%" style="stop-color:#2d6a3f;stop-opacity:1" />
      <stop offset="100%" style="stop-color:#1e4d2b;stop-opacity:1" />
    </linearGradient>
    
    <linearGradient id="bodyMid" x1="0%" y1="0%" x2="100%" y2="100%">
      <stop offset="0%" style="stop-color:#4a8c5a;stop-opacity:1" />
      <stop offset="100%" style="stop-color:#3d7a4c;stop-opacity:1" />
    </linearGradient>
    
    <linearGradient id="bodyLight" x1="0%" y1="0%" x2="100%" y2="100%">
      <stop offset="0%" style="stop-color:#9ed641;stop-opacity:1" />
      <stop offset="100%" style="stop-color:#7ab82d;stop-opacity:1" />
    </linearGradient>
    
    <linearGradient id="headGrad" x1="0%" y1="0%" x2="100%" y2="0%">
      <stop offset="0%" style="stop-color:#a8d83f;stop-opacity:1" />
      <stop offset="100%" style="stop-color:#82c91e;stop-opacity:1" />
    </linearGradient>
    
    <radialGradient id="eyeGlow" cx="50%" cy="50%" r="50%">
      <stop offset="0%" style="stop-color:#e8f5e9;stop-opacity:1" />
      <stop offset="70%" style="stop-color:#c8e6c9;stop-opacity:1" />
      <stop offset="100%" style="stop-color:#a5d6a7;stop-opacity:0.8" />
    </radialGradient>

    <linearGradient id="tealAccent" x1="0%" y1="100%" x2="100%" y2="0%">
      <stop offset="0%" style="stop-color:#26a69a;stop-opacity:0.7" />
      <stop offset="100%" style="stop-color:#4db6ac;stop-opacity:0.5" />
    </linearGradient>
  </defs>
  
  <!-- Cuerpo inferior (sombra/base) -->
  <path d="M 80 420 L 180 380 L 320 400 L 380 460 L 280 490 L 140 480 Z" 
        fill="url(#bodyDark)" opacity="0.85"/>
  
  <!-- Pata/aleta izquierda inferior -->
  <path d="M 60 280 L 140 200 L 200 260 L 180 340 L 120 360 Z" 
        fill="url(#bodyMid)" opacity="0.9"/>
  
  <!-- Segmento cuerpo medio izquierdo -->
  <path d="M 120 360 L 180 340 L 260 360 L 240 420 L 180 440 L 140 420 Z" 
        fill="url(#bodyMid)"/>
  
  <!-- Detalle teal/turquesa (sombra) -->
  <path d="M 200 450 L 280 440 L 340 470 L 280 490 L 220 480 Z" 
        fill="url(#tealAccent)"/>
  
  <!-- Cuerpo principal centro -->
  <path d="M 140 200 L 240 160 L 360 200 L 380 320 L 320 380 L 200 360 L 180 280 Z" 
        fill="url(#bodyMid)"/>
  
  <!-- Segmento superior trasero -->
  <path d="M 180 100 L 280 60 L 360 90 L 360 200 L 280 240 L 240 160 Z" 
        fill="url(#bodyDark)" opacity="0.8"/>
  
  <!-- Cabeza/cara principal (verde lima brillante) -->
  <path d="M 280 160 L 400 140 L 470 240 L 450 340 L 360 320 L 340 240 Z" 
        fill="url(#headGrad)"/>
  
  <!-- Pliegue superior cabeza -->
  <path d="M 280 60 L 400 80 L 470 140 L 450 200 L 400 140 L 320 120 Z" 
        fill="url(#bodyLight)" opacity="0.75"/>
  
  <!-- Cuello/conexión -->
  <path d="M 240 160 L 280 160 L 340 240 L 360 200 L 280 240 Z" 
        fill="#5a9e6a" opacity="0.85"/>
  
  <!-- Detalle mejilla -->
  <path d="M 340 240 L 400 220 L 450 280 L 420 320 L 360 300 Z" 
        fill="#b5e550" opacity="0.6"/>
  
  <!-- Base del ojo (círculo exterior grande) -->
  <circle cx="400" cy="250" r="65" fill="url(#eyeGlow)"/>
  
  <!-- Iris verde claro -->
  <circle cx="400" cy="250" r="50" fill="#d4f1d4"/>
  
  <!-- Iris medio -->
  <circle cx="400" cy="250" r="38" fill="#a5d6a7"/>
  
  <!-- Pupila -->
  <circle cx="400" cy="250" r="28" fill="#1a1a1a"/>
  
  <!-- Brillo del ojo (reflejo) -->
  <ellipse cx="412" cy="235" rx="12" ry="16" fill="white" opacity="0.85"/>
  <circle cx="418" cy="242" r="5" fill="white" opacity="0.6"/>
  
  <!-- Detalle de piel/textura (opcional - líneas sutiles) -->
  <path d="M 350 280 Q 360 260 370 280" stroke="#4a8c5a" stroke-width="2" fill="none" opacity="0.3"/>
  <path d="M 280 200 Q 300 180 320 200" stroke="#3d7a4c" stroke-width="2" fill="none" opacity="0.25"/>
</svg>
