<svg width="32" height="32" viewBox="0 0 32 32" fill="none" xmlns="http://www.w3.org/2000/svg">
  <defs>
    <linearGradient id="b1" x1="0%" y1="0%" x2="100%" y2="100%">
      <stop offset="0%" style="stop-color:#4a8c5a"/>
      <stop offset="100%" style="stop-color:#2d6a3f"/>
    </linearGradient>
    <linearGradient id="b2" x1="0%" y1="0%" x2="100%" y2="0%">
      <stop offset="0%" style="stop-color:#a8d83f"/>
      <stop offset="100%" style="stop-color:#82c91e"/>
    </linearGradient>
  </defs>
  
  <!-- Cuerpo simplificado -->
  <path d="M 3 26 L 11 24 L 20 25 L 24 29 L 17 30 L 9 30 Z" fill="#2d6a3f" opacity="0.8"/>
  <path d="M 4 17 L 9 13 L 13 16 L 11 21 L 8 23 Z" fill="url(#b1)" opacity="0.9"/>
  <path d="M 8 23 L 11 21 L 16 23 L 15 26 L 11 28 L 9 26 Z" fill="url(#b1)"/>
  <path d="M 9 13 L 15 10 L 22 13 L 24 20 L 20 24 L 13 23 L 11 18 Z" fill="#4a8c5a"/>
  
  <!-- Cabeza -->
  <path d="M 17 10 L 25 9 L 29 15 L 28 21 L 22 20 L 21 15 Z" fill="url(#b2)"/>
  
  <!-- Ojo -->
  <circle cx="25" cy="15.5" r="4" fill="#d4f1d4"/>
  <circle cx="25" cy="15.5" r="2.8" fill="#1a1a1a"/>
  <circle cx="26" cy="14.5" r="1" fill="white" opacity="0.9"/>
</svg>
